<?xml version="1.0" encoding="UTF-8" standalone="no"?>
<svg width="9px" height="8px" viewBox="0 0 9 8" version="1.1" xmlns="http://www.w3.org/2000/svg" xmlns:xlink="http://www.w3.org/1999/xlink" xmlns:sketch="http://www.bohemiancoding.com/sketch/ns">
    <!-- Generator: Sketch 3.2.2 (9983) - http://www.bohemiancoding.com/sketch -->
    <title>Path 1</title>
    <desc>Created with Sketch.</desc>
    <defs></defs>
    <g id="Page-1" stroke="none" stroke-width="1" fill="none" fill-rule="evenodd" sketch:type="MSPage">
        <g id="GS_listing" sketch:type="MSArtboardGroup" transform="translate(-476.000000, -486.000000)" fill="#979797">
            <g id="panel" sketch:type="MSLayerGroup" transform="translate(0.000000, 416.000000)">
                <g id="call" transform="translate(415.000000, 56.000000)" sketch:type="MSShapeGroup">
                    <path d="M61.2288457,13.9964556 C61.2288457,13.9964556 61.1475985,14.0411437 61.0091308,14.2359879 C60.870663,14.4308322 61.4447734,18.3940869 63.4185052,19.884815 C65.392237,21.3755432 65.5166093,21.7598672 68.8179907,21.9920898 C68.9992634,21.8462726 69.049437,21.6052192 69.049437,21.6052192 L68.9992638,19.5856316 L68.805464,19.3578969 L66.6067242,19.3418574 L65.6525716,20.4169029 C65.6525716,20.4169029 62.8100639,18.8093718 62.6125525,17.3658151 C63.1838155,16.7403415 63.6285434,16.4527555 63.6285434,16.4527555 L63.6905142,14.213453 L63.4605924,14.0085846 L61.2288457,13.9964556 Z" id="Path-1"></path>
                </g>
            </g>
        </g>
    </g>
</svg>